<?xml version="1.0" encoding="UTF-8" standalone="no"?>
<!DOCTYPE svg PUBLIC "-//W3C//DTD SVG 1.1//EN"
 "http://www.w3.org/Graphics/SVG/1.1/DTD/svg11.dtd">
<!-- Generated by graphviz version 2.43.0 (0)
 -->
<!-- Title: %3 Pages: 1 -->
<svg width="447pt" height="165pt"
 viewBox="0.00 0.00 447.00 164.74" xmlns="http://www.w3.org/2000/svg" xmlns:xlink="http://www.w3.org/1999/xlink">
<g id="graph0" class="graph" transform="scale(1 1) rotate(0) translate(36 128.74)">
<title>%3</title>
<polygon fill="dimgray" stroke="transparent" points="-36,36 -36,-128.74 411,-128.74 411,36 -36,36"/>
<text text-anchor="middle" x="187.5" y="-77.54" font-family="Helvetica,sans-Serif" font-size="14.00">Sweep&#39;s Plan &amp; Progress</text>
<!-- start -->
<g id="node1" class="node">
<title>start</title>
</g>
<!-- e9278104&#45;5ca8&#45;4ff3&#45;9348&#45;96db9869a52a -->
<g id="node3" class="node">
<title>e9278104&#45;5ca8&#45;4ff3&#45;9348&#45;96db9869a52a</title>
<ellipse fill="yellow" stroke="black" cx="184.5" cy="-26.87" rx="132.46" ry="26.74"/>
<text text-anchor="middle" x="184.5" y="-30.67" font-family="Helvetica,sans-Serif" font-size="14.00">⋯ Modify</text>
<text text-anchor="middle" x="184.5" y="-15.67" font-family="Helvetica,sans-Serif" font-size="14.00">internal/rpc/user/user.go</text>
</g>
<!-- start&#45;&gt;e9278104&#45;5ca8&#45;4ff3&#45;9348&#45;96db9869a52a -->
<g id="edge1" class="edge">
<title>start&#45;&gt;e9278104&#45;5ca8&#45;4ff3&#45;9348&#45;96db9869a52a</title>
<path fill="none" stroke="black" d="M1.03,-26.87C4.1,-26.87 20.28,-26.87 41.85,-26.87"/>
<polygon fill="black" stroke="black" points="42.12,-30.37 52.12,-26.87 42.12,-23.37 42.12,-30.37"/>
<text text-anchor="middle" x="26.64" y="-33.67" font-family="Helvetica,sans-Serif" font-size="14.00">Start</text>
</g>
<!-- end -->
<g id="node2" class="node">
<title>end</title>
</g>
<!-- e9278104&#45;5ca8&#45;4ff3&#45;9348&#45;96db9869a52a&#45;&gt;end -->
<g id="edge2" class="edge">
<title>e9278104&#45;5ca8&#45;4ff3&#45;9348&#45;96db9869a52a&#45;&gt;end</title>
<path fill="none" stroke="black" d="M316.98,-26.87C336.34,-26.87 353.23,-26.87 363.61,-26.87"/>
<polygon fill="black" stroke="black" points="363.85,-30.37 373.85,-26.87 363.85,-23.37 363.85,-30.37"/>
<text text-anchor="middle" x="345.36" y="-33.67" font-family="Helvetica,sans-Serif" font-size="14.00">Finish</text>
</g>
</g>
</svg>
